<svg xmlns="http://www.w3.org/2000/svg" version="1.1" xmlns:xlink="http://www.w3.org/1999/xlink" xmlns:svgjs="http://svgjs.dev/svgjs" width="156" height="62"><svg width="156" height="62" viewBox="0 0 156 62" fill="none" xmlns="http://www.w3.org/2000/svg">
<path d="M36.934 5.158C43.822 5.158 49.2067 6.798 53.088 10.078C56.9693 13.3033 58.91 17.9773 58.91 24.1C58.91 26.9973 58.4727 30.1133 57.598 33.448C55.958 39.5707 53.416 44.764 49.972 49.028C46.528 53.292 42.428 56.5173 37.672 58.704C32.916 60.8907 27.75 61.984 22.174 61.984C15.3407 61.984 9.98333 60.3713 6.102 57.146C2.22067 53.866 0.28 49.1647 0.28 43.042C0.28 40.254 0.744667 37.056 1.674 33.448C3.25933 27.38 5.74667 22.2413 9.136 18.032C12.58 13.768 16.6527 10.57 21.354 8.438C26.11 6.25133 31.3033 5.158 36.934 5.158ZM35.458 13.194C33.818 13.194 32.342 13.85 31.03 15.162C29.718 16.474 28.406 18.6333 27.094 21.64C25.8367 24.592 24.47 28.7193 22.994 34.022C20.8073 41.6753 19.714 46.9507 19.714 49.848C19.714 51.5427 20.0147 52.7727 20.616 53.538C21.2173 54.3033 22.174 54.686 23.486 54.686C25.126 54.686 26.602 54.03 27.914 52.718C29.226 51.3513 30.5107 49.192 31.768 46.24C33.0253 43.288 34.4193 39.2153 35.95 34.022C38.082 26.478 39.148 21.1753 39.148 18.114C39.148 16.3647 38.8473 15.1073 38.246 14.342C37.6447 13.5767 36.7153 13.194 35.458 13.194ZM125.523 6.388C126.671 6.388 127.546 6.57933 128.147 6.962C128.803 7.34467 129.131 7.83667 129.131 8.438C129.131 8.71133 129.049 9.06666 128.885 9.504C128.721 9.88666 128.475 10.242 128.147 10.57C127.874 10.8433 127.601 11.062 127.327 11.226C127.109 11.3353 126.945 11.4447 126.835 11.554C125.961 12.046 125.25 12.5927 124.703 13.194C124.157 13.7953 123.692 14.7247 123.309 15.982L113.223 51.324C113.005 52.0347 112.895 52.718 112.895 53.374C112.895 54.03 112.977 54.5493 113.141 54.932C113.36 55.3147 113.661 55.8067 114.043 56.408C114.098 56.4627 114.235 56.6813 114.453 57.064C114.727 57.392 114.863 57.7473 114.863 58.13C114.863 58.2393 114.809 58.5127 114.699 58.95C114.426 59.7153 113.907 60.262 113.141 60.59C112.376 60.8633 111.228 61 109.697 61H90.4275C89.2795 61 88.3775 60.8087 87.7215 60.426C87.1201 60.0433 86.8195 59.524 86.8195 58.868C86.8195 58.54 86.9015 58.1847 87.0655 57.802C87.2841 57.3647 87.5848 57.0093 87.9675 56.736C88.3501 56.408 88.7328 56.1347 89.1155 55.916C89.9901 55.424 90.7008 54.8773 91.2475 54.276C91.7941 53.62 92.2588 52.636 92.6415 51.324L96.5775 37.63H82.0635L78.1275 51.324C77.9088 52.0347 77.7995 52.718 77.7995 53.374C77.7995 54.03 77.8815 54.5493 78.0455 54.932C78.2641 55.3147 78.5648 55.8067 78.9475 56.408C79.0021 56.4627 79.1388 56.6813 79.3575 57.064C79.6308 57.392 79.7675 57.7473 79.7675 58.13C79.7675 58.2393 79.7128 58.5127 79.6035 58.95C79.3301 59.7153 78.8108 60.262 78.0455 60.59C77.2801 60.8633 76.1321 61 74.6015 61H55.3315C54.1835 61 53.3088 60.8087 52.7075 60.426C52.0515 60.0433 51.7235 59.524 51.7235 58.868C51.7235 58.54 51.8055 58.1847 51.9695 57.802C52.1881 57.3647 52.4888 57.0093 52.8715 56.736C53.2541 56.408 53.6368 56.1347 54.0195 55.916C54.8941 55.424 55.6048 54.8773 56.1515 54.276C56.6981 53.62 57.1628 52.636 57.5455 51.324L67.6315 15.982C67.8501 15.2713 67.9595 14.588 67.9595 13.932C67.9595 13.3307 67.8501 12.8387 67.6315 12.456C67.4675 12.0187 67.2215 11.5267 66.8935 10.98C66.6748 10.7067 66.4835 10.4333 66.3195 10.16C66.1555 9.832 66.0735 9.504 66.0735 9.176C66.0735 9.06667 66.1281 8.79333 66.2375 8.356C66.4561 7.64533 66.9481 7.15333 67.7135 6.88C68.4788 6.552 69.6268 6.388 71.1575 6.388H90.4275C91.5755 6.388 92.4501 6.57933 93.0515 6.962C93.7075 7.34467 94.0355 7.83667 94.0355 8.438C94.0355 8.71133 93.9535 9.06666 93.7895 9.504C93.6255 9.88666 93.3795 10.242 93.0515 10.57C92.7781 10.8433 92.5048 11.062 92.2315 11.226C92.0128 11.3353 91.8488 11.4447 91.7395 11.554C90.8648 12.046 90.1541 12.5927 89.6075 13.194C89.0608 13.7953 88.5961 14.7247 88.2135 15.982L84.3595 29.43H98.8735L102.727 15.982C102.946 15.2713 103.055 14.588 103.055 13.932C103.055 13.3307 102.946 12.8387 102.727 12.456C102.563 12.0187 102.317 11.5267 101.989 10.98C101.771 10.7067 101.579 10.4333 101.415 10.16C101.251 9.832 101.169 9.504 101.169 9.176C101.169 9.06667 101.224 8.79333 101.333 8.356C101.552 7.64533 102.044 7.15333 102.809 6.88C103.575 6.552 104.723 6.388 106.253 6.388H125.523ZM133.804 12.292C134.187 4.14666 138.314 0.0739975 146.186 0.0739975C149.193 0.0739975 151.516 0.729997 153.156 2.042C154.851 3.354 155.698 5.18533 155.698 7.536C155.698 9.94133 154.851 12.6747 153.156 15.736L140.282 38.696C139.626 39.9533 138.943 40.8553 138.232 41.402C137.576 41.894 136.756 42.14 135.772 42.14C133.64 42.14 132.629 40.8553 132.738 38.286L133.804 12.292ZM133.558 44.436C135.745 44.436 137.576 45.174 139.052 46.65C140.583 48.126 141.348 49.93 141.348 52.062C141.348 53.538 140.938 54.9867 140.118 56.408C139.353 57.8293 138.26 59.0047 136.838 59.934C135.472 60.8087 133.914 61.246 132.164 61.246C130.032 61.246 128.228 60.508 126.752 59.032C125.276 57.556 124.511 55.752 124.456 53.62C124.456 52.144 124.839 50.6953 125.604 49.274C126.37 47.8527 127.436 46.7047 128.802 45.83C130.224 44.9007 131.809 44.436 133.558 44.436Z" fill="#1E1E1E"></path>
</svg><style>@media (prefers-color-scheme: light) { :root { filter: none; } }
@media (prefers-color-scheme: dark) { :root { filter: none; } }
</style></svg>